<?xml version="1.0" encoding="utf-8"?>
<!-- Generator: Adobe Illustrator 13.0.0, SVG Export Plug-In . SVG Version: 6.00 Build 14948)  -->
<!DOCTYPE svg PUBLIC "-//W3C//DTD SVG 1.1//EN" "http://www.w3.org/Graphics/SVG/1.1/DTD/svg11.dtd">
<svg version="1.1" id="Ebene_1" xmlns="http://www.w3.org/2000/svg" xmlns:xlink="http://www.w3.org/1999/xlink" x="0px" y="0px"
	 width="520.105px" height="380.52px" viewBox="0 0 520.105 380.52" enable-background="new 0 0 520.105 380.52"
	 xml:space="preserve">
<g>
	<polygon fill-rule="evenodd" clip-rule="evenodd" fill="#E10024" points="35.343,196.756 23.194,380.52 480.325,347.109 
		450.711,213.461 35.343,196.756 	"/>
	<path fill-rule="evenodd" clip-rule="evenodd" fill="#05428A" d="M277.112,0v7.214c5.948,14.428,13.035,30.375,18.983,44.802
		c56.287,34.417,69.918,86.333,34.09,161.25c-0.281,5.456-0.184,8.967-0.274,12.643l88.821,8.732l6.074-75.935l95.299-137.444
		l-99.854-10.251l-26.958,55.433L377.727,8.733L277.112,0L277.112,0z"/>
	<path fill-rule="evenodd" clip-rule="evenodd" fill="#05428A" d="M250.086,40.672c57.455,0,104.031,46.662,104.031,104.222
		s-46.576,104.221-104.031,104.221s-104.03-46.661-104.03-104.221S192.632,40.672,250.086,40.672L250.086,40.672z M250.555,135.914
		c6.646,0,12.034,3.91,12.034,8.733c0,4.823-5.388,8.732-12.034,8.732c-6.646,0-12.035-3.91-12.035-8.732
		C238.52,139.824,243.908,135.914,250.555,135.914L250.555,135.914z"/>
	<path fill-rule="evenodd" clip-rule="evenodd" fill="#AF1826" d="M122.24,280.79c2.531-5.821,5.063-11.644,7.593-17.465
		c-48.242-20.921-81.705,20.094-37.838,35.975c11.482,1.81,6.964,19.604-15.672,0.682c-2.531,5.822-3.923,12.784-6.455,18.605
		c48.147,20.96,88.201-18.738,39.202-36.829C94.805,280.346,99.9,261.75,122.24,280.79L122.24,280.79z"/>
	<polygon fill-rule="evenodd" clip-rule="evenodd" fill="#AF1826" points="153.042,324.143 183.797,324.143 183.797,286.84 
		197.56,286.84 197.56,258.079 139.28,258.079 139.28,286.84 153.042,286.84 153.042,324.143 	"/>
	<path fill-rule="evenodd" clip-rule="evenodd" fill="#AF1826" d="M239.704,257.505c18.558,0,33.601,14.788,33.601,33.031
		c0,18.244-15.043,33.032-33.601,33.032s-33.601-14.788-33.601-33.032C206.103,272.293,221.146,257.505,239.704,257.505
		L239.704,257.505z M239.704,281.331c3.774,0,6.834,3.187,6.834,7.119c0,3.931-3.06,7.117-6.834,7.117s-6.834-3.187-6.834-7.117
		C232.87,284.517,235.929,281.331,239.704,281.331L239.704,281.331z"/>
	<path fill-rule="evenodd" clip-rule="evenodd" fill="#AF1826" d="M288.113,257.505h28.855c1.234,0,11.285,0,13.051,0
		c18.296,0,24.348,12.05,24.348,20.17c0,8.121-3.113,9.762-8.243,13.313c7.996,9.875,12.665,20.639,14.175,32.58
		c-10.441,0-20.123,0-30.564,0c0.247-9.666-0.854-24.953-12.766-25.889v25.889h-28.855v-45.894V257.505L288.113,257.505z
		 M319.343,270.461c3.327,0,6.025,2.933,6.025,6.55s-2.698,6.549-6.025,6.549c-0.974,0-1.894-0.251-2.707-0.696v-11.705
		C317.449,270.713,318.369,270.461,319.343,270.461L319.343,270.461z"/>
	<polygon fill-rule="evenodd" clip-rule="evenodd" fill="#FFCC00" points="148.866,323.569 179.621,323.569 179.621,286.266 
		193.383,286.266 193.383,257.505 135.104,257.505 135.104,286.266 148.866,286.266 148.866,323.569 	"/>
	<path fill-rule="evenodd" clip-rule="evenodd" fill="#FFCC00" d="M235.907,257.505c18.557,0,33.601,14.788,33.601,33.031
		c0,18.244-15.043,33.032-33.601,33.032c-18.558,0-33.602-14.788-33.602-33.032C202.306,272.293,217.349,257.505,235.907,257.505
		L235.907,257.505z M235.907,281.331c3.774,0,6.834,3.187,6.834,7.119c0,3.931-3.06,7.117-6.834,7.117s-6.834-3.187-6.834-7.117
		C229.073,284.517,232.133,281.331,235.907,281.331L235.907,281.331z"/>
	<path fill-rule="evenodd" clip-rule="evenodd" fill="#FFCC00" d="M284.695,257.505h28.855c1.234,0,11.285,0,13.052,0
		c18.296,0,24.347,12.05,24.347,20.17c0,8.121-3.112,9.762-8.242,13.313c7.996,9.875,12.664,20.639,14.175,32.58
		c-10.441,0-20.124,0-30.565,0c0.247-9.666-0.853-24.953-12.766-25.889v25.889h-28.855v-45.894V257.505L284.695,257.505z
		 M315.926,270.461c3.327,0,6.025,2.933,6.025,6.55s-2.698,6.549-6.025,6.549c-0.975,0-1.895-0.251-2.708-0.696v-11.705
		C314.031,270.713,314.951,270.461,315.926,270.461L315.926,270.461z"/>
	<path fill-rule="evenodd" clip-rule="evenodd" fill="#FFCC00" d="M118.443,279.954c2.531-5.821,5.062-11.644,7.593-17.465
		c-48.243-20.921-81.705,20.095-37.838,35.975c11.482,1.81,6.963,19.604-15.672,0.683c-2.531,5.822-3.924,12.782-6.455,18.604
		c48.147,20.961,88.202-18.738,39.202-36.829C91.009,279.509,96.103,260.914,118.443,279.954L118.443,279.954z"/>
	<polygon fill-rule="evenodd" clip-rule="evenodd" fill="#AF1826" points="412.837,294.137 412.837,323.569 384.361,323.569 
		384.361,294.719 359.492,257.505 387.968,257.505 398.41,272.407 409.041,257.505 437.137,257.505 412.837,294.137 	"/>
	<polygon fill-rule="evenodd" clip-rule="evenodd" fill="#FFCC00" points="409.42,294.137 409.42,323.569 380.945,323.569 
		380.945,294.719 356.075,257.505 384.551,257.505 394.992,272.407 405.623,257.505 433.72,257.505 409.42,294.137 	"/>
	
		<path fill-rule="evenodd" clip-rule="evenodd" fill="#FED700" stroke="#162F51" stroke-width="0.127" stroke-miterlimit="22.9256" d="
		M303.555,23.244c19.87,2.025,40.403,4.05,60.273,6.075c7.848,27.59,15.029,55.18,22.876,82.77
		c13.542-26.325,25.944-53.788,39.487-80.112c20.249,2.025,41.637,5.189,61.887,7.214c-26.451,39.106-52.902,78.213-79.352,117.32
		c-1.646,20.376-3.292,40.752-4.938,61.129c-18.477-1.646-36.955-3.291-55.433-4.937c0.38-12.656,0.76-25.312,1.139-37.968
		c11.146-38.953,2.904-73.433-25.438-103.272C317.223,55.39,310.389,39.317,303.555,23.244L303.555,23.244z"/>
	<path fill-rule="evenodd" clip-rule="evenodd" fill="#FED700" d="M248.813,61.449c48.438,0,87.516,38.666,87.516,85.428
		c0,46.761-39.267,84.667-87.705,84.667c-48.439,0-87.707-37.906-87.707-84.667C160.917,100.115,200.375,61.449,248.813,61.449
		L248.813,61.449z M250.142,118.113c13.63,0,24.678,11.454,24.678,25.582s-11.048,25.582-24.678,25.582
		s-24.679-11.453-24.679-25.582S236.512,118.113,250.142,118.113L250.142,118.113z"/>
	<path fill-rule="evenodd" clip-rule="evenodd" fill="#F4AA28" d="M256.217,118.113c13.631,0,24.678,11.454,24.678,25.582
		s-11.047,25.582-24.678,25.582c-1.028,0-2.042-0.066-3.037-0.193c12.196-1.552,21.641-12.327,21.641-25.389
		c0-13.063-9.444-23.837-21.641-25.389C254.175,118.18,255.188,118.113,256.217,118.113L256.217,118.113z"/>
	<path fill-rule="evenodd" clip-rule="evenodd" fill="#F4AA28" d="M200.831,75.544c0.633,6.581,1.336,12.141,1.969,18.723
		c3.386,0.079,10.734-1.1,16.113-1.685c-0.759-7.594-1.376-17.655-2.136-25.248C211.418,68.86,206.064,72.436,200.831,75.544
		L200.831,75.544z"/>
	<path fill-rule="evenodd" clip-rule="evenodd" fill="#F4AA28" d="M184.789,94.102c-5.382,7.844-10.992,18.179-13.336,28.048
		c0.08,19.997,1.819,39.993,4.936,59.989c11.962,25.31,33.524,39.319,55.623,48.409c-85.821-20.664-81.502-107.202-51.555-136.547
		C182.142,94.061,183.106,94.003,184.789,94.102L184.789,94.102z"/>
	<path fill-rule="evenodd" clip-rule="evenodd" fill="#F4AA28" d="M309.25,24.003c5.695,12.656,11.391,25.312,17.086,37.968
		c50.907,30.7,61.477,93.582,28.096,142.38c0,2.911,0.095,5.703,0.095,8.614c-2.045-0.155-3.71-0.356-5.886-0.452
		c0.508-10.884,0.645-26.11,1.151-36.994c0.134-0.539-0.161-0.256-0.002-0.783c12.745-42.101-0.559-78.417-25.543-103.557
		c-7.214-16.833-13.289-31.102-20.502-47.935C303.745,23.244,310.009,23.624,309.25,24.003L309.25,24.003z"/>
	<polygon fill-rule="evenodd" clip-rule="evenodd" fill="#F4AA28" points="386.563,112.896 394.678,112.089 432.503,32.832 
		426.332,32.273 386.563,112.896 	"/>
	<path fill-rule="evenodd" clip-rule="evenodd" fill="#05428A" d="M249.64,117.975c13.944,0,25.249,11.475,25.249,25.629
		c0,14.153-11.305,25.628-25.249,25.628c-13.944,0-25.248-11.475-25.248-25.628C224.392,129.45,235.696,117.975,249.64,117.975
		L249.64,117.975z M250.527,136.01c6.7,0,12.132,4.39,12.132,9.804s-5.432,9.803-12.132,9.803c-6.7,0-12.131-4.389-12.131-9.803
		S243.827,136.01,250.527,136.01L250.527,136.01z"/>
	<path fill-rule="evenodd" clip-rule="evenodd" fill="#162F51" d="M250.446,130.884c5.59,0,13.604,7.272,11.937,12.461
		c-1.342-4.171-6.212-7.478-11.604-7.478c-5.392,0-10.688,3.165-12.03,7.336C237.002,137.771,244.933,130.884,250.446,130.884
		L250.446,130.884z"/>
	<polygon fill-rule="evenodd" clip-rule="evenodd" fill="#162F51" points="301.629,19.406 303.242,23.014 364.086,29.279 
		362.758,25.102 301.629,19.406 	"/>
	<path fill-rule="evenodd" clip-rule="evenodd" fill="#162F51" d="M425.867,32.007l1.72-3.299l63.692,6.549l-3.134,3.797
		C488.146,39.055,425.962,31.817,425.867,32.007L425.867,32.007z"/>
	<path fill-rule="evenodd" clip-rule="evenodd" fill="#AF1826" d="M247.903,251.39c31.915-1.019,62.498-15.907,84.288-42.239
		c-0.38,5.695-2.088,15.852-2.469,21.547c4.873,0.38,10.601,1.045,14.523,1.139C319.145,250.842,285.154,257.191,247.903,251.39
		L247.903,251.39z"/>
	<polygon fill-rule="evenodd" clip-rule="evenodd" fill="#AF1826" points="420.465,212.287 440.494,212.952 438.311,239.245 
		416.859,239.055 420.465,212.287 	"/>
	<path fill-rule="evenodd" clip-rule="evenodd" fill="#162F51" d="M165.369,206.118c35.449,60.483,135.454,59.848,167.106,2.372
		C288.526,263.2,211.912,261.539,165.369,206.118L165.369,206.118z"/>
	<path fill-rule="evenodd" clip-rule="evenodd" fill="#162F51" d="M165.796,117.842c24.321-63.668,93.948-75.199,137.063-38.442
		C249.286,44.853,193.108,62.594,165.796,117.842L165.796,117.842z"/>
	<polygon fill-rule="evenodd" clip-rule="evenodd" fill="#05428A" points="0,26.664 190.218,6.541 202.748,88.172 151.111,86.273 
		167.438,237.385 75.176,246.877 59.229,98.803 9.492,110.953 0,26.664 	"/>
	<polygon fill-rule="evenodd" clip-rule="evenodd" fill="#FED700" points="18.918,39.427 24.993,88.026 72.833,74.357 
		90.298,224.709 148.768,220.913 129.784,66.005 185.217,69.042 176.864,23.48 18.918,39.427 	"/>
	<polygon fill-rule="evenodd" clip-rule="evenodd" fill="#162F51" points="9.467,110.905 15.755,117.217 60.13,107.298 
		59.276,98.661 9.467,110.905 	"/>
	<polygon fill-rule="evenodd" clip-rule="evenodd" fill="#162F51" points="150.803,86.133 153.271,107.584 153.461,93.726 
		203.555,94.296 202.653,87.272 150.803,86.133 	"/>
	<polygon fill-rule="evenodd" clip-rule="evenodd" fill="#162F51" points="74.868,246.738 79.044,251.104 169.787,241.422 
		163.712,202.599 167.319,237.055 74.868,246.738 	"/>
	<path fill-rule="evenodd" clip-rule="evenodd" fill="#AF1826" d="M102.104,248.167c0.38,2.088,0.759,4.176,1.139,6.264
		c34.361-3.29,68.722-6.581,103.083-9.871c-0.126-1.013-0.253-2.024-0.38-3.037c-14.605-6.02-30.07-22.52-42.145-38.158
		c1.329,11.391,3.987,26.578,5.316,37.968C169.118,241.333,101.915,248.737,102.104,248.167L102.104,248.167z"/>
	<polygon fill-rule="evenodd" clip-rule="evenodd" fill="#162F51" points="330.125,225.883 329.46,230.818 417.214,239.077 
		417.498,234.425 330.125,225.883 	"/>
	<polygon fill-rule="evenodd" clip-rule="evenodd" fill="#162F51" points="151.624,92.284 168.52,236.015 167.523,238.864 
		151.624,92.284 	"/>
</g>
</svg>
